<svg width="187" height="40" viewBox="0 0 187 40" fill="none" xmlns="http://www.w3.org/2000/svg">
<path d="M45.1999 0H0V39.9964H45.1999V0Z" fill="white"/>
<path d="M31.7233 24.3284V24.5809C34.9638 25.9101 38.3437 26.873 41.7998 27.4514C42.8322 27.6095 44.0125 27.7548 45.1981 27.8602V27.0935C43.6549 26.9355 42.1099 26.7902 40.8768 26.5794C37.7757 26.0472 34.7168 25.2949 31.7233 24.3284Z" fill="#008A32"/>
<path d="M39.437 25.2023V25.4549C41.3179 26.0081 43.2464 26.3852 45.1976 26.5813V25.9709C43.2651 25.8168 41.3422 25.5603 39.437 25.2023Z" fill="#008A32"/>
<path d="M33.3703 26.4286V26.6848C35.498 27.4461 37.6812 28.0438 39.9007 28.4725C40.7197 28.6869 42.4672 28.9413 43.9137 29.1429V29.4027C30.2328 28.8885 22.6791 23.867 19.1312 20.3861V12.4485C17.2232 16.1911 11.4699 23.2057 0.00344849 25.2568V40H45.2034V28.3254C43.3519 28.2254 41.5004 28.0147 40.1615 27.813C37.8712 27.4917 35.6032 27.0294 33.3703 26.4286Z" fill="#009749"/>
<path d="M18.772 5.37587H19.1369V11.8908C22.4805 17.6264 31.5811 22.1302 35.2275 23.3093C38.4767 24.3451 41.8188 25.0654 45.2072 25.4603V0H0V21.5579C8.12282 19.5104 16.304 10.7535 18.772 5.37587Z" fill="#E60012"/>
<path d="M65.534 18.6801H82.0202V21.218H65.534V18.6801ZM55 18.2644L57.5326 19.3667C57.8765 18.955 58.1514 18.4079 58.4954 17.9285V33.663H61.1687V12.1794C61.8489 10.0505 62.3949 7.88114 62.8036 5.68396L60.1979 5.27624C59.4907 9.94873 57.7116 14.3941 55 18.2644ZM83.0428 23.805V33.3868H80.3761V32.084H67.4623V33.3868H64.8567V23.7373C64.793 23.4717 64.9231 23.3322 65.2006 23.3322H82.4319C82.8449 23.3349 83.0428 23.4703 83.0428 23.805ZM80.3761 26.1954C80.3761 25.9298 80.2433 25.8515 79.9777 25.8515H67.7943C67.5858 25.8515 67.4636 25.9325 67.4636 26.1954V29.6152H80.3775L80.3761 26.1954ZM82.0202 16.6921V14.1608H65.534V16.6921H82.0202ZM82.0202 8.27628V5.81543H65.534V8.27628H82.0202ZM63.4277 9.84866V12.5207H84.2248V9.86062H63.4277V9.84866ZM111.912 18.2552L110.824 20.4517C111.912 20.9364 112.805 21.3375 113.48 21.6722C113.971 21.8792 114.451 22.1119 114.917 22.3694L116.08 20.3056C115.472 19.9736 114.578 19.4929 113.48 19.0108C113.001 18.7492 112.455 18.5433 111.906 18.2644L111.912 18.2552ZM116.294 30.5727C116.263 30.6874 116.203 30.7919 116.118 30.8754C116.034 30.9589 115.929 31.0186 115.813 31.0481C115.4 31.1889 114.921 30.9764 114.248 30.5089C113.967 30.2951 113.756 30.0946 113.484 29.8927C113.418 29.8263 113.351 29.7599 113.277 29.6882C113.351 29.6151 113.418 29.6152 113.484 29.5435C114.487 28.9001 115.448 28.1934 116.362 27.4279L114.921 25.4438C114.414 25.7713 113.934 26.1376 113.484 26.5394C112.897 27.011 112.28 27.4431 111.635 27.8329C110.944 26.9659 110.349 26.0264 109.861 25.0308H118.001V22.6403H109.033C108.582 21.1126 108.217 19.5608 107.941 17.9922H118.479V15.6017H105.819V14.0931H115.807V11.9071H105.819V10.3334H117.373V7.94293H111.149C111.492 7.45422 111.832 6.9801 112.112 6.63747L110.135 5C109.394 6.04879 108.568 7.03527 107.666 7.94958H101.653L101.387 7.5246C100.689 6.61445 99.9092 5.76987 99.0576 5.00134L97.278 6.64546C97.7384 7.02931 98.1505 7.46768 98.5051 7.95092H91.5276V10.3414H103.221V11.9151H93.1718V14.101H103.221V15.6097H90.5051V18.0001H105.349C105.688 19.7027 106.028 21.2777 106.435 22.6483H99.537V21.0161C100.848 20.9368 102.15 20.7534 103.432 20.4676L103.084 18.21C99.3674 18.95 95.5857 19.3162 91.7959 19.3029L92.1399 21.5606C93.5117 21.4929 95.1452 21.4278 97.1267 21.295V22.6589H90.9035V25.0494H97.1267V27.238C94.6698 27.5182 92.5489 27.655 90.6379 27.72L91.0456 30.1105C92.6897 30.0375 94.7415 29.9087 97.1267 29.6324V30.5262C97.1467 30.6642 97.133 30.8051 97.0868 30.9367C97.0405 31.0683 96.9631 31.1867 96.861 31.2818C96.3843 31.6803 95.0111 31.5474 92.8291 31.0667V33.5249C95.5011 34.1584 97.3444 34.1584 98.2369 33.5249C98.6507 33.2826 98.9904 32.9319 99.2193 32.5106C99.4482 32.0893 99.5576 31.6134 99.5357 31.1344V29.3602C101.165 29.1442 102.781 28.8463 104.38 28.4677L103.904 26.1477C102.813 26.4133 101.38 26.6271 99.5357 26.898V25.048H107.189C107.688 26.4919 108.401 27.8521 109.306 29.0826C106.734 30.1729 104.018 30.8885 101.242 31.2075L101.924 33.6723C105.017 33.2212 108.033 32.3443 110.886 31.0667C111.66 31.842 112.532 32.5118 113.48 33.0587C113.617 33.188 113.783 33.2815 113.965 33.331C114.389 33.6249 114.87 33.8262 115.377 33.9216C115.883 34.017 116.405 34.0045 116.906 33.8848C117.86 33.5302 118.54 31.8276 118.954 28.6855L116.555 27.9312C116.563 28.8205 116.473 29.708 116.289 30.578L116.294 30.5727ZM141.186 19.6947H152.194V22.0852H137.962C137.962 22.712 137.83 23.3242 137.758 24.0042H150.482C150.565 23.9738 150.656 23.9702 150.742 23.994C150.827 24.0178 150.903 24.0679 150.959 24.137C151.297 24.2698 151.431 24.7545 151.431 25.4372C151.431 29.396 151.094 31.7281 150.342 32.4757C149.796 33.0153 149.111 33.3935 148.364 33.5687C146.512 34.0548 143.848 33.8502 140.221 32.9618L140.287 29.8821C143.981 31.1079 146.645 31.3177 148.083 30.4983C148.269 30.3653 148.421 30.1906 148.527 29.9884C148.632 29.7861 148.689 29.5619 148.693 29.3336C148.851 28.4736 148.851 27.592 148.693 26.732C148.663 26.6702 148.616 26.6183 148.557 26.5825C148.499 26.5467 148.431 26.5286 148.362 26.5301H137.143C137.01 26.6709 137.01 26.8714 136.939 27.0003C135.48 29.7911 133.368 32.1874 130.782 33.9844L128.657 32.1252C132.907 29.5275 135.152 26.1795 135.353 22.0719H130.298V19.6814H138.51V17.5898H129.213V20.5208C129.206 24.9027 128.465 29.2524 127.021 33.3894L124.419 31.9525C125.825 28.3029 126.565 24.4305 126.604 20.5194V7.39977C126.54 6.70521 126.814 6.36921 127.289 6.36921C131.391 6.50998 135.429 6.43561 139.19 6.2364C142.819 6.03321 146.239 5.68394 149.518 5.21249L150.405 8.01596C146.786 8.42367 143.089 8.76895 139.19 8.97082C136.114 9.11557 132.905 9.11558 129.689 9.11558C129.341 9.11558 129.212 9.24043 129.212 9.5233V10.6787H151.024C151.134 10.6682 151.246 10.6824 151.35 10.7204C151.455 10.7583 151.549 10.8191 151.627 10.8981C151.706 10.9772 151.765 11.0727 151.802 11.1776C151.838 11.2825 151.851 11.3943 151.839 11.5047V16.8368C151.839 17.3162 151.573 17.5924 151.024 17.5924H141.175L141.186 19.6947ZM139.194 15.1794H148.977C149.004 15.1826 149.032 15.1796 149.058 15.1706C149.084 15.1616 149.108 15.1468 149.127 15.1273C149.146 15.1079 149.161 15.0844 149.17 15.0584C149.179 15.0325 149.182 15.0048 149.179 14.9775V13.3334C149.179 13.1316 149.113 13.0519 148.977 13.0519H129.216V15.1767L139.194 15.1794ZM175.509 30.4452H186.452V32.9764H162.308V30.4452H172.845V28.1145H164.432V25.724H172.845V23.6722L163.947 24.1516L163.88 21.6788L166.005 21.546C166.892 20.3083 167.787 19.0945 168.594 17.7837H162.991V19.2206C162.992 22.2143 162.647 25.198 161.96 28.1118C161.67 29.962 161.119 31.7616 160.324 33.4572L157.729 32.2872C159.552 27.8183 160.435 23.0219 160.324 18.1967V6.83667C160.31 6.69933 160.327 6.56068 160.374 6.43074C160.42 6.30079 160.495 6.1828 160.593 6.08539C160.691 5.98799 160.809 5.9136 160.939 5.86759C161.069 5.82158 161.208 5.80511 161.345 5.8194H184.539C184.677 5.79993 184.818 5.81282 184.951 5.85706C185.083 5.90129 185.203 5.97569 185.302 6.07433C185.4 6.17297 185.475 6.29316 185.519 6.42547C185.563 6.55777 185.576 6.69853 185.557 6.83667V12.3175C185.576 12.456 185.563 12.5971 185.519 12.7297C185.475 12.8624 185.401 12.9831 185.302 13.0824C185.204 13.1816 185.084 13.2568 184.951 13.302C184.819 13.3471 184.678 13.3611 184.539 13.3427H162.991V15.2498H186.044V17.7837H180.509C182.696 19.5729 184.708 21.5655 186.519 23.7346L184.804 25.4478C184.056 24.6204 183.377 23.8754 182.756 23.1901L175.505 23.5274V25.716H183.923V28.1065H175.505L175.509 30.4452ZM162.991 10.6773H182.554C182.599 10.6802 182.644 10.6735 182.686 10.6577C182.729 10.6419 182.767 10.6173 182.799 10.5856C182.831 10.5539 182.856 10.5157 182.873 10.4736C182.889 10.4315 182.896 10.3864 182.894 10.3414V8.96952C182.894 8.62954 182.761 8.48743 182.554 8.48743H163.402C163.137 8.48743 162.995 8.62954 162.995 8.96952L162.991 10.6773ZM174.962 21.1489L180.437 20.9484C179.816 20.3521 179.154 19.8009 178.454 19.299L179.823 17.793H171.756L169.498 21.4212L174.962 21.1489Z" fill="#009749"/>
</svg>
